<svg width="64" height="26" viewBox="0 0 64 26" fill="none" xmlns="http://www.w3.org/2000/svg">
<path d="M8.20539 21.2946C8.90613 21.2946 9.55035 21.1343 10.1381 20.8137V25.4161C9.36952 25.7825 8.36362 25.9657 7.12038 25.9657C5.19901 25.9657 3.83144 25.5077 3.01769 24.5918C2.20393 23.6759 1.79705 22.3479 1.79705 20.6077V9.75429H0V5.39234H2.0344L3.5941 1.88904H6.91694V5.39234H9.93463V9.75429H6.91694V20.0581C6.91694 20.8824 7.34643 21.2946 8.20539 21.2946Z" fill="white"/>
<path d="M19.7111 10.7503C19.7111 9.88023 19.2364 9.44518 18.287 9.44518C17.3377 9.44518 16.863 9.88023 16.863 10.7503V20.2985C16.863 21.1686 17.3377 21.6037 18.287 21.6037C19.2364 21.6037 19.7111 21.1686 19.7111 20.2985V10.7503ZM11.8448 10.5786C11.8448 8.8384 12.376 7.48745 13.4384 6.52576C14.5234 5.54117 16.1396 5.04888 18.287 5.04888C20.4345 5.04888 22.0394 5.54117 23.1018 6.52576C24.1868 7.48745 24.7293 8.8384 24.7293 10.5786V20.4703C24.7293 22.2105 24.1868 23.5729 23.1018 24.5575C22.0394 25.5192 20.4345 26 18.287 26C16.1396 26 14.5234 25.5192 13.4384 24.5575C12.376 23.5729 11.8448 22.2105 11.8448 20.4703V10.5786Z" fill="white"/>
<path d="M30.0253 26C28.1492 26 27.2111 25.107 27.2111 23.321C27.2111 21.5121 28.1492 20.6077 30.0253 20.6077C31.9241 20.6077 32.8735 21.5121 32.8735 23.321C32.8735 25.107 31.9241 26 30.0253 26Z" fill="white"/>
<path d="M43.286 9.99472H42.1671C41.1047 9.99472 40.5735 10.5672 40.5735 11.712V20.1955C40.5735 20.7908 40.9125 21.0885 41.5907 21.0885C42.2688 21.0885 42.8339 20.9511 43.286 20.6764V9.99472ZM43.2521 0H48.4059V25.6565H43.4216V24.214C42.6079 25.2673 41.4437 25.7939 39.9292 25.7939C38.4374 25.7939 37.3184 25.3818 36.5725 24.5575C35.8265 23.7332 35.4536 22.5883 35.4536 21.1229V11.5403C35.4536 9.61691 35.9735 8.11713 37.0133 7.04095C38.0531 5.94188 39.6354 5.39234 41.7602 5.39234H43.2521V0Z" fill="white"/>
<path d="M58.9818 10.7503C58.9818 9.88023 58.5071 9.44518 57.5577 9.44518C56.6084 9.44518 56.1337 9.88023 56.1337 10.7503V20.2985C56.1337 21.1686 56.6084 21.6037 57.5577 21.6037C58.5071 21.6037 58.9818 21.1686 58.9818 20.2985V10.7503ZM51.1155 10.5786C51.1155 8.8384 51.6467 7.48745 52.7091 6.52576C53.7941 5.54117 55.4103 5.04888 57.5577 5.04888C59.7052 5.04888 61.3101 5.54117 62.3725 6.52576C63.4575 7.48745 64 8.8384 64 10.5786V20.4703C64 22.2105 63.4575 23.5729 62.3725 24.5575C61.3101 25.5192 59.7052 26 57.5577 26C55.4103 26 53.7941 25.5192 52.7091 24.5575C51.6467 23.5729 51.1155 22.2105 51.1155 20.4703V10.5786Z" fill="white"/>
</svg>
